<?xml version="1.0" encoding="UTF-8" standalone="no"?>
<!DOCTYPE svg PUBLIC "-//W3C//DTD SVG 1.1//EN" "http://www.w3.org/Graphics/SVG/1.1/DTD/svg11.dtd">
<svg xmlns="http://www.w3.org/2000/svg" version="1.1" viewBox="0 0 577 432">
<path fill="#7943cd" d="
  M 341.88 45.67
  Q 347.86 45.41 342.12 43.71
  L 294.15 29.51
  A 1.01 1.00 7.7 0 1 293.43 28.58
  Q 293.39 27.13 294.05 25.77
  Q 294.20 25.45 294.30 24.71
  C 294.46 23.55 295.31 23.38 296.34 23.69
  Q 332.91 34.57 369.53 45.37
  A 1.00 1.00 0.0 0 1 370.25 46.33
  L 370.25 205.25
  A 1.00 1.00 0.0 0 1 369.25 206.25
  L 212.25 206.25
  A 1.00 1.00 0.0 0 1 211.25 205.25
  Q 211.25 127.99 211.12 52.00
  Q 211.11 49.09 210.91 46.51
  A 1.00 1.00 0.0 0 1 211.62 45.48
  L 285.18 23.51
  A 1.01 0.99 -15.2 0 1 286.44 24.22
  L 287.43 28.24
  A 1.00 1.00 0.0 0 1 286.75 29.44
  Q 261.42 37.14 236.08 44.58
  Q 234.85 44.95 235.55 45.55
  A 0.81 0.77 -23.5 0 0 236.07 45.74
  Q 288.16 45.76 340.25 45.70
  Q 341.13 45.70 341.88 45.67
  Z
  M 262.29 93.13
  Q 261.95 77.55 262.16 61.98
  Q 262.19 60.11 262.05 57.16
  Q 261.94 54.88 261.96 52.61
  A 1.00 1.00 0.0 0 0 260.96 51.60
  L 218.24 51.62
  A 1.00 1.00 0.0 0 0 217.24 52.62
  L 217.25 199.12
  A 1.01 1.00 0.0 0 0 218.26 200.12
  L 261.15 199.95
  A 1.01 1.00 -0.3 0 0 262.15 198.95
  L 262.20 161.14
  A 1.00 1.00 0.0 0 1 263.70 160.27
  L 275.86 167.29
  A 1.00 1.00 0.0 0 0 276.86 167.29
  L 290.28 159.60
  A 1.00 0.97 -50.7 0 1 291.07 159.51
  C 295.93 160.95 302.50 163.63 307.56 163.03
  Q 312.86 162.41 318.09 161.58
  A 1.01 1.00 -4.4 0 1 319.25 162.57
  L 319.25 199.04
  A 1.00 1.00 0.0 0 0 320.25 200.04
  L 362.99 200.08
  A 1.00 0.99 -89.7 0 0 363.99 199.08
  L 364.05 52.74
  A 1.00 1.00 0.0 0 0 363.05 51.74
  Q 344.80 51.78 326.56 51.72
  Q 326.48 51.72 323.59 51.55
  Q 321.80 51.44 320.02 51.81
  A 1.00 0.99 84.4 0 0 319.23 52.79
  L 319.16 93.01
  Q 319.16 94.76 317.65 93.86
  L 305.48 86.63
  A 1.00 1.00 0.0 0 0 304.39 86.68
  L 291.12 96.17
  A 0.99 0.99 0.0 0 1 290.14 96.27
  L 276.72 90.49
  A 0.98 0.95 48.3 0 0 276.05 90.44
  L 263.57 94.07
  A 1.00 1.00 0.0 0 1 262.29 93.13
  Z
  M 313.04 52.80
  A 1.01 1.00 2.2 0 0 312.11 51.80
  Q 306.70 51.40 300.68 51.50
  Q 285.00 51.78 269.25 51.77
  A 1.00 1.00 0.0 0 0 268.25 52.77
  L 268.25 85.08
  A 1.01 1.00 -10.3 0 0 269.61 86.02
  Q 272.36 84.97 275.26 84.72
  C 279.22 84.39 286.36 88.56 290.22 90.07
  A 0.99 0.99 0.0 0 0 291.16 89.96
  L 304.36 80.58
  A 0.98 0.98 0.0 0 1 305.42 80.52
  L 311.52 83.91
  A 1.00 1.00 0.0 0 0 313.01 83.04
  L 313.04 52.80
  Z
  M 276.03 173.50
  L 269.70 170.33
  A 1.00 1.00 0.0 0 0 268.25 171.22
  L 268.25 199.05
  A 1.00 1.00 0.0 0 0 269.25 200.05
  L 312.00 199.98
  A 1.00 1.00 0.0 0 0 313.00 198.98
  L 313.00 169.84
  A 1.00 1.00 0.0 0 0 311.78 168.87
  Q 309.28 169.42 306.67 169.48
  C 301.94 169.59 295.83 167.11 291.19 165.70
  A 1.00 0.97 -50.7 0 0 290.40 165.79
  L 276.98 173.48
  A 1.02 1.02 0.0 0 1 276.03 173.50
  Z"
/>
<path fill="#7943cd" d="
  M 50.17 271.75
  C 40.95 296.57 60.75 323.41 87.92 316.14
  Q 92.62 314.88 100.72 309.33
  A 1.00 0.94 25.6 0 1 101.29 309.15
  Q 108.06 309.18 106.86 316.67
  A 0.96 0.95 -16.2 0 1 106.52 317.28
  C 93.60 328.10 76.55 330.92 61.55 323.93
  C 24.51 306.66 31.13 248.93 72.25 241.68
  Q 88.90 238.75 103.34 248.91
  C 107.60 251.91 109.92 256.55 103.71 259.50
  Q 101.63 260.49 99.84 259.05
  Q 96.81 256.63 93.11 254.59
  C 76.63 245.48 56.38 255.02 50.17 271.75
  Z"
/>
<path fill="#6e61d7" d="
  M 191.26 248.60
  C 191.26 239.82 201.80 240.37 201.84 247.81
  Q 202.00 278.16 202.02 308.49
  Q 202.02 313.60 206.59 315.98
  A 1.07 1.01 51.6 0 0 207.27 316.08
  C 216.21 314.10 218.13 325.95 208.16 326.52
  C 195.42 327.26 191.25 315.23 191.25 304.73
  Q 191.24 276.66 191.26 248.60
  Z"
/>
<path fill="#5e8ce2" d="
  M 449.48 326.50
  C 438.91 328.04 431.96 317.85 431.89 308.05
  Q 431.66 278.04 431.87 248.00
  C 431.92 239.84 442.47 239.94 442.48 249.57
  Q 442.51 274.51 442.50 299.47
  C 442.50 305.59 440.53 317.32 450.78 315.96
  Q 453.62 315.58 454.58 318.28
  Q 457.12 325.39 449.48 326.50
  Z"
/>
<path fill="#647edf" d="
  M 261.58 325.76
  Q 259.05 324.49 259.04 321.67
  Q 258.95 297.10 259.03 272.75
  C 259.05 268.53 261.21 267.00 265.33 267.00
  Q 291.02 267.00 316.70 267.00
  Q 325.28 267.00 329.11 268.46
  C 339.84 272.54 341.97 282.30 341.98 293.00
  Q 342.00 305.52 342.00 318.05
  Q 342.00 322.44 341.39 323.89
  C 339.37 328.69 331.25 327.40 331.26 320.60
  Q 331.27 305.06 331.21 289.51
  C 331.15 275.20 312.26 271.91 307.20 284.65
  Q 306.03 287.61 306.01 294.54
  Q 305.97 306.01 305.96 317.51
  C 305.95 320.21 306.24 323.70 304.03 325.54
  C 299.73 329.11 295.18 325.28 295.23 320.20
  Q 295.41 299.32 295.14 289.44
  C 294.75 275.27 276.48 271.95 271.17 284.26
  Q 269.77 287.51 269.76 295.11
  Q 269.74 307.16 269.75 319.24
  C 269.76 324.43 267.44 328.69 261.58 325.76
  Z"
/>
<path fill="#4eb9f1" d="
  M 510.24 298.03
  C 494.98 293.17 493.59 274.94 509.02 269.23
  Q 525.16 263.25 539.74 273.47
  Q 540.72 274.14 541.84 276.16
  C 545.36 282.48 537.84 284.85 533.73 281.47
  Q 525.33 274.55 514.26 277.27
  C 505.10 279.54 508.17 288.77 515.74 290.30
  C 527.73 292.71 545.39 295.53 543.83 311.23
  C 542.32 326.43 524.96 327.93 513.25 326.23
  Q 504.19 324.93 497.13 319.10
  Q 494.81 317.18 495.67 314.30
  Q 496.77 310.63 500.65 310.08
  C 504.14 309.59 505.53 312.35 508.10 313.89
  Q 516.33 318.83 526.07 316.98
  C 536.15 315.06 535.51 304.55 525.99 302.24
  Q 515.28 299.64 510.24 298.03
  Z"
/>
<path fill="#7943cd" d="
  M 154.02 326.21
  C 132.35 330.80 114.55 314.84 117.37 292.72
  C 119.26 277.88 130.69 267.67 145.51 267.15
  C 182.40 265.88 188.14 319.00 154.02 326.21
  Z
  M 146.7670 317.5395
  A 20.49 19.40 90.4 0 0 166.3095 297.1854
  A 20.49 19.40 90.4 0 0 147.0530 276.5605
  A 20.49 19.40 90.4 0 0 127.5105 296.9146
  A 20.49 19.40 90.4 0 0 146.7670 317.5395
  Z"
/>
<path fill="#5e8ce2" d="
  M 385.00 327.00
  C 361.38 326.91 351.28 299.15 362.03 281.34
  C 375.60 258.85 409.83 264.25 416.08 289.43
  Q 416.98 293.05 416.99 300.74
  Q 417.02 311.38 416.97 322.00
  C 416.94 326.20 414.25 326.95 410.51 326.97
  Q 397.76 327.05 385.00 327.00
  Z
  M 386.9109 317.4739
  A 20.43 19.35 91.4 0 0 406.7542 297.5228
  A 20.43 19.35 91.4 0 0 387.9091 276.6261
  A 20.43 19.35 91.4 0 0 368.0658 296.5772
  A 20.43 19.35 91.4 0 0 386.9109 317.4739
  Z"
/>
<rect fill="#6e61d7" x="227.01" y="267.53" width="11.00" height="58.98" rx="5.17"/>
<rect fill="#4eb9f1" x="467.74" y="267.54" width="11.00" height="59.00" rx="5.31"/>
<rect fill="#7943cd" x="-1.36" y="-12.09" transform="translate(206.95,366.52) rotate(7.0)" width="2.72" height="24.18" rx="0.60"/>
<circle fill="#7943cd" cx="215.35" cy="356.86" r="1.88"/>
<circle fill="#7943cd" cx="435.41" cy="356.85" r="1.88"/>
<path fill="#7943cd" d="
  M 382.27 356.07
  Q 382.87 355.15 383.77 354.96
  Q 386.82 354.30 384.72 356.61
  Q 383.65 357.78 382.17 359.15
  Q 381.66 359.63 381.17 359.67
  Q 379.87 359.79 380.58 358.69
  Q 381.44 357.34 382.27 356.07
  Z"
/>
<path fill="#7943cd" d="
  M 459.69 356.19
  Q 460.62 354.92 461.93 354.94
  Q 463.90 354.95 462.48 356.31
  Q 459.86 358.82 459.12 359.36
  Q 458.96 359.47 458.80 359.54
  Q 456.81 360.46 458.00 358.61
  Q 458.62 357.64 459.69 356.19
  Z"
/>
<path fill="#7943cd" d="
  M 126.63 372.13
  Q 130.14 364.77 134.06 356.71
  Q 134.62 355.55 135.42 355.31
  Q 135.81 355.19 136.22 355.19
  A 1.00 1.00 0.0 0 1 137.10 356.64
  L 126.53 377.91
  A 1.01 1.00 12.4 0 1 125.64 378.47
  L 124.31 378.47
  A 0.99 0.99 0.0 0 1 123.34 377.72
  L 118.01 356.42
  A 1.01 1.00 -12.5 0 1 118.80 355.19
  Q 119.68 355.03 120.35 355.53
  Q 120.95 355.97 121.23 357.19
  Q 122.76 363.76 124.75 371.94
  Q 125.42 374.67 126.63 372.13
  Z"
/>
<path fill="#7943cd" d="
  M 284.85 376.41
  L 287.13 376.22
  A 0.79 0.79 0.0 0 1 287.98 376.85
  Q 288.15 377.66 287.13 378.08
  C 278.30 381.72 281.84 369.33 282.19 365.66
  A 1.00 0.99 -78.6 0 0 281.50 364.61
  L 280.87 364.41
  A 1.01 1.00 -77.6 0 1 280.18 363.32
  L 280.22 363.03
  A 0.51 0.50 -89.3 0 1 280.67 362.59
  L 282.22 362.42
  A 1.01 1.00 0.7 0 0 283.10 361.57
  C 283.36 359.84 283.80 356.28 285.24 356.71
  A 0.80 0.79 11.0 0 1 285.80 357.53
  L 285.53 361.43
  A 1.00 1.00 0.0 0 0 286.53 362.50
  L 288.61 362.50
  A 1.01 1.00 -84.5 0 1 289.59 363.70
  L 289.53 363.98
  A 0.64 0.64 0.0 0 1 288.90 364.50
  L 286.07 364.50
  A 1.01 1.00 -86.0 0 0 285.08 365.37
  L 283.77 375.28
  A 1.00 1.00 0.0 0 0 284.85 376.41
  Z"
/>
<path fill="#7943cd" d="
  M 326.83 364.67
  Q 323.65 363.32 327.46 362.35
  A 1.03 1.01 -88.3 0 0 328.18 361.66
  L 329.41 357.53
  A 1.00 0.99 5.5 0 1 330.28 356.82
  L 330.66 356.79
  A 0.64 0.64 0.0 0 1 331.35 357.51
  L 330.82 361.37
  A 1.00 0.99 4.0 0 0 331.81 362.50
  L 334.36 362.50
  A 0.64 0.64 0.0 0 1 334.99 363.24
  L 334.93 363.65
  A 1.02 1.00 -85.3 0 1 333.94 364.50
  L 331.25 364.50
  A 1.00 0.99 2.9 0 0 330.26 365.39
  L 329.15 375.59
  Q 328.93 377.69 330.70 376.54
  Q 332.11 375.61 333.10 376.41
  A 0.80 0.80 0.0 0 1 332.95 377.74
  C 323.46 382.56 327.39 369.21 327.43 365.60
  A 1.00 0.99 -78.2 0 0 326.83 364.67
  Z"
/>
<path fill="#7943cd" d="
  M 443.88 376.36
  L 446.10 376.12
  A 0.80 0.79 -12.9 0 1 446.94 376.64
  C 447.72 378.78 439.19 381.14 440.21 373.42
  C 440.40 371.95 442.60 363.65 439.70 364.49
  A 0.52 0.51 -5.4 0 1 439.04 363.95
  L 439.09 363.52
  A 1.00 1.00 0.0 0 1 439.96 362.64
  L 441.52 362.44
  A 1.00 1.00 0.0 0 0 442.38 361.33
  Q 442.16 359.46 442.85 358.08
  Q 444.98 353.87 444.74 358.59
  L 444.60 361.45
  A 1.00 1.00 0.0 0 0 445.60 362.50
  L 448.00 362.50
  A 0.65 0.64 -87.9 0 1 448.64 363.20
  L 448.60 363.58
  A 0.99 0.99 0.0 0 1 447.61 364.49
  L 445.11 364.51
  A 0.99 0.98 3.6 0 0 444.13 365.37
  L 442.78 375.23
  A 1.00 1.00 0.0 0 0 443.88 376.36
  Z"
/>
<path fill="#7943cd" d="
  M 138.8588 378.2953
  A 8.69 6.91 113.4 0 1 135.9683 367.5757
  A 8.69 6.91 113.4 0 1 145.7612 362.3447
  A 8.69 6.91 113.4 0 1 148.6517 373.0643
  A 8.69 6.91 113.4 0 1 138.8588 378.2953
  Z
  M 140.6715 376.5731
  A 6.45 4.23 104.9 0 0 146.4178 371.4277
  A 6.45 4.23 104.9 0 0 143.9885 364.1069
  A 6.45 4.23 104.9 0 0 138.2422 369.2523
  A 6.45 4.23 104.9 0 0 140.6715 376.5731
  Z"
/>
<path fill="#7943cd" d="
  M 152.98 375.69
  C 155.41 377.58 160.11 377.03 159.38 373.02
  A 1.00 0.99 7.8 0 0 158.83 372.30
  L 155.04 370.44
  Q 151.72 368.81 152.70 366.46
  Q 155.36 360.06 162.15 362.87
  A 0.99 0.99 0.0 0 1 162.64 363.30
  C 163.62 365.02 161.64 364.87 160.74 364.43
  C 158.40 363.29 153.64 364.72 155.70 367.75
  Q 155.83 367.95 156.05 368.06
  L 161.28 370.90
  A 0.99 0.96 7.9 0 1 161.78 371.54
  C 163.25 377.69 156.38 380.51 151.89 377.51
  A 1.00 1.00 0.0 0 1 151.68 376.04
  L 151.88 375.80
  A 0.80 0.79 -50.5 0 1 152.98 375.69
  Z"
/>
<path fill="#7943cd" d="
  M 177.18 376.10
  Q 180.58 377.37 182.99 374.80
  A 0.80 0.80 0.0 0 1 183.95 374.64
  C 186.72 376.14 175.17 383.32 173.00 374.32
  C 171.49 368.10 176.63 359.39 183.96 362.70
  C 184.87 363.11 186.07 364.55 184.55 365.14
  A 0.99 0.99 0.0 0 1 183.65 365.06
  C 177.22 361.00 174.14 370.88 176.64 375.63
  A 1.06 1.02 -2.8 0 0 177.18 376.10
  Z"
/>
<path fill="#7943cd" d="
  M 190.9188 378.2853
  A 8.69 6.90 113.4 0 1 188.0375 367.5697
  A 8.69 6.90 113.4 0 1 197.8212 362.3347
  A 8.69 6.90 113.4 0 1 200.7025 373.0503
  A 8.69 6.90 113.4 0 1 190.9188 378.2853
  Z
  M 192.6941 376.5651
  A 6.43 4.22 105.2 0 0 198.4524 371.4664
  A 6.43 4.22 105.2 0 0 196.0659 364.1549
  A 6.43 4.22 105.2 0 0 190.3076 369.2536
  A 6.43 4.22 105.2 0 0 192.6941 376.5651
  Z"
/>
<path fill="#7943cd" d="
  M 223.03 368.11
  L 227.31 370.19
  Q 230.22 371.60 228.70 374.66
  Q 225.68 380.72 218.97 377.89
  A 1.00 0.98 89.0 0 1 218.46 377.39
  Q 217.67 375.71 219.28 375.48
  A 0.99 0.98 -29.5 0 1 220.06 375.69
  C 224.10 379.00 229.73 373.62 224.04 371.49
  Q 221.75 370.63 220.10 368.84
  A 0.96 0.91 21.6 0 1 219.84 368.28
  C 219.16 362.39 225.29 360.44 229.42 363.12
  A 0.79 0.79 0.0 0 1 229.64 364.25
  C 228.44 365.94 221.81 361.04 222.47 367.31
  A 1.03 1.01 10.4 0 0 223.03 368.11
  Z"
/>
<path fill="#7943cd" d="
  M 241.46 377.41
  A 1.06 1.01 89.3 0 1 241.03 376.97
  C 237.45 369.97 242.31 359.29 251.34 362.74
  A 1.04 1.03 -3.2 0 1 251.88 363.22
  C 255.18 369.68 247.69 370.73 243.44 371.05
  A 1.00 1.00 0.0 0 0 242.52 371.95
  Q 242.07 376.78 247.23 376.38
  C 248.45 376.28 251.73 373.56 252.15 375.11
  A 0.99 0.98 -29.7 0 1 251.88 376.09
  Q 247.37 380.44 241.46 377.41
  Z
  M 248.98 363.80
  A 1.00 1.00 0.0 0 0 247.89 363.57
  Q 244.65 364.85 243.17 367.77
  Q 242.25 369.59 244.25 369.20
  Q 246.18 368.83 248.07 368.24
  Q 252.10 366.99 248.98 363.80
  Z"
/>
<path fill="#7943cd" d="
  M 260.90 364.26
  Q 261.49 363.84 262.05 363.40
  C 264.19 361.73 267.50 361.18 268.92 363.90
  C 270.38 366.69 268.83 374.42 268.37 377.62
  A 1.02 1.00 -86.2 0 1 267.40 378.48
  L 266.60 378.50
  A 1.01 0.99 2.3 0 1 265.58 377.41
  C 265.79 375.11 269.42 359.99 262.24 365.34
  C 258.40 368.20 258.72 373.48 258.06 377.66
  A 1.00 0.99 4.9 0 1 257.05 378.50
  L 256.30 378.48
  A 1.00 0.99 4.4 0 1 255.34 377.36
  L 257.14 362.95
  A 1.00 1.00 0.0 0 1 258.25 362.08
  Q 259.68 362.25 259.63 363.59
  Q 259.57 365.22 260.90 364.26
  Z"
/>
<path fill="#7943cd" d="
  M 294.7711 378.2680
  A 8.68 6.91 113.7 0 1 291.9328 367.5425
  A 8.68 6.91 113.7 0 1 301.7489 362.3720
  A 8.68 6.91 113.7 0 1 304.5872 373.0975
  A 8.68 6.91 113.7 0 1 294.7711 378.2680
  Z
  M 296.4762 376.5439
  A 6.41 4.23 105.6 0 0 302.2742 371.5075
  A 6.41 4.23 105.6 0 0 299.9238 364.1961
  A 6.41 4.23 105.6 0 0 294.1258 369.2325
  A 6.41 4.23 105.6 0 0 296.4762 376.5439
  Z"
/>
<path fill="#7943cd" d="
  M 339.20 371.95
  Q 338.74 377.23 344.03 376.39
  C 345.07 376.23 350.58 372.19 348.67 376.82
  A 1.02 0.99 -0.4 0 1 348.11 377.37
  C 337.57 381.41 333.23 373.81 338.36 365.81
  C 343.96 357.08 355.50 365.57 346.48 369.78
  Q 344.14 370.87 340.16 371.04
  A 1.01 1.00 1.3 0 0 339.20 371.95
  Z
  M 344.58 364.18
  Q 341.02 364.41 339.82 367.93
  A 1.00 1.00 0.0 0 0 340.94 369.24
  Q 342.85 368.89 344.64 368.29
  C 347.39 367.35 348.60 363.91 344.58 364.18
  Z"
/>
<path fill="#7943cd" d="
  M 362.17 370.08
  Q 359.72 368.89 360.53 366.43
  Q 362.55 360.30 369.25 362.58
  C 370.45 362.99 371.72 364.57 369.27 364.72
  A 0.99 0.97 -33.4 0 1 368.76 364.62
  Q 364.83 362.66 362.65 366.35
  A 1.00 1.00 0.0 0 0 363.09 367.76
  L 368.58 370.38
  A 1.05 1.01 2.1 0 1 369.08 370.90
  C 371.69 377.08 364.04 380.88 359.43 377.36
  A 0.98 0.98 0.0 0 1 359.05 376.41
  C 359.43 374.05 364.67 379.42 367.65 373.88
  A 1.00 1.00 0.0 0 0 367.20 372.51
  L 362.17 370.08
  Z"
/>
<path fill="#7943cd" d="
  M 399.56 376.54
  C 395.18 380.63 388.16 379.08 388.28 372.25
  C 388.38 366.19 392.38 360.51 399.09 362.47
  Q 400.11 362.78 400.56 363.42
  Q 401.08 364.19 400.61 364.83
  A 0.99 0.99 0.0 0 1 399.28 365.08
  C 389.69 359.09 387.82 382.96 398.28 375.08
  C 399.86 373.89 401.05 375.14 399.56 376.54
  Z"
/>
<path fill="#7943cd" d="
  M 426.87 365.36
  Q 424.88 366.80 424.67 367.98
  L 422.93 377.68
  A 1.00 1.00 0.0 0 1 421.95 378.50
  L 421.32 378.50
  A 1.01 1.00 -86.4 0 1 420.33 377.37
  L 422.17 363.07
  A 1.00 0.98 -7.7 0 1 422.79 362.27
  Q 424.41 361.62 424.55 364.14
  Q 424.67 366.01 425.72 364.47
  C 426.65 363.10 431.81 359.93 430.47 364.04
  A 1.00 1.00 0.0 0 1 429.41 364.73
  Q 427.98 364.56 426.87 365.36
  Z"
/>
<rect fill="#7943cd" x="-1.38" y="-8.18" transform="translate(213.85,370.37) rotate(6.8)" width="2.76" height="16.36" rx="0.37"/>
<path fill="#7943cd" d="
  M 316.98 376.36
  L 314.77 378.25
  A 1.06 1.02 -67.8 0 1 314.25 378.48
  C 305.27 379.67 309.14 368.86 309.51 363.18
  A 1.01 1.00 -87.8 0 1 310.51 362.25
  L 311.36 362.25
  A 1.00 0.99 -85.5 0 1 312.34 363.40
  Q 311.26 370.43 311.32 374.21
  C 311.36 377.25 314.35 376.60 315.85 375.22
  C 319.21 372.13 319.41 368.25 319.71 363.21
  A 1.01 1.00 -88.8 0 1 320.69 362.27
  L 321.51 362.25
  A 1.00 1.00 0.0 0 1 322.53 363.36
  L 320.89 377.63
  A 1.00 0.99 -84.3 0 1 319.82 378.51
  Q 318.19 378.38 318.30 377.03
  Q 318.45 375.11 316.98 376.36
  Z"
/>
<path fill="#7943cd" d="
  M 385.04 374.98
  C 386.59 377.16 374.07 382.86 372.91 373.46
  Q 372.15 367.26 376.45 363.67
  C 382.74 358.40 391.52 367.12 381.40 370.21
  Q 378.99 370.94 376.44 370.99
  A 1.00 0.99 86.8 0 0 375.47 372.08
  Q 375.99 377.89 381.45 376.04
  C 382.32 375.75 382.95 374.98 383.87 374.63
  A 1.01 1.01 0.0 0 1 385.04 374.98
  Z
  M 381.53 363.91
  Q 377.62 364.25 376.18 367.91
  Q 375.49 369.67 377.33 369.25
  C 378.94 368.89 386.65 367.45 382.21 364.11
  A 1.00 0.98 -28.3 0 0 381.53 363.91
  Z"
/>
<path fill="#7943cd" d="
  M 412.15 376.28
  Q 411.59 376.69 411.06 377.17
  C 408.67 379.31 404.97 379.51 403.87 376.09
  C 402.90 373.05 404.37 366.64 404.68 363.18
  A 1.01 1.01 0.0 0 1 405.73 362.27
  L 406.58 362.32
  A 1.00 0.99 -82.9 0 1 407.51 363.52
  C 407.12 365.34 404.79 376.51 408.39 376.40
  C 413.85 376.24 414.53 367.50 414.78 363.98
  Q 414.95 361.67 416.88 362.22
  A 1.00 1.00 0.0 0 1 417.60 363.29
  L 416.01 377.63
  A 1.00 0.99 -85.4 0 1 414.97 378.52
  Q 413.25 378.43 413.42 377.02
  Q 413.64 375.20 412.15 376.28
  Z"
/>
<rect fill="#7943cd" x="-1.36" y="-8.19" transform="translate(433.89,370.37) rotate(6.9)" width="2.72" height="16.38" rx="0.26"/>
<path fill="#7943cd" d="
  M 452.69 372.17
  Q 452.40 375.52 455.29 376.45
  Q 458.28 377.41 460.74 374.79
  A 1.03 1.00 -69.6 0 1 461.39 374.48
  C 463.43 374.31 462.99 375.54 462.05 376.37
  Q 458.71 379.30 455.28 378.72
  C 445.73 377.08 450.42 359.72 460.42 362.33
  C 464.83 363.48 464.08 367.87 460.52 369.47
  Q 457.27 370.94 453.60 371.26
  A 1.01 1.00 -89.6 0 0 452.69 372.17
  Z
  M 454.59 369.20
  L 459.35 368.14
  A 0.97 0.97 0.0 0 0 459.95 367.74
  C 462.12 364.63 459.37 363.30 456.91 364.35
  Q 454.41 365.42 453.44 367.86
  Q 452.75 369.61 454.59 369.20
  Z"
/>
</svg>
